<svg width="70" height="70" viewBox="0 0 70 70" fill="none" xmlns="http://www.w3.org/2000/svg">
<path d="M53.9583 32.0834C49.4083 32.0834 45.4417 29.4584 43.5167 25.6376L41.2125 20.7668C41.1833 20.7084 39.7542 17.5001 35.9917 17.5001C25.4333 17.5001 17.5 48.6793 17.5 55.4168H24.7917L18.6667 63.5834L23.3333 67.0834L32.0833 55.4168H37.9167V67.0834H43.75V55.3293L37.9167 37.9168L39.3458 30.0126C41.7312 33.6451 45.3789 36.2639 49.5833 37.3626V39.3751H52.5V36.4584C52.5 35.6418 53.1417 35.0001 53.9583 35.0001C54.775 35.0001 55.4167 35.6418 55.4167 36.4584V67.0834H58.3333V36.4584C58.3333 34.0376 56.3792 32.0834 53.9583 32.0834ZM33.8333 8.48758C33.6583 9.04175 33.5417 9.59592 33.5417 10.2084C33.5417 13.4167 36.1667 16.0417 39.375 16.0417C42.5833 16.0417 45.2083 13.4167 45.2083 10.2084C45.2083 7.00008 42.5833 4.37508 39.375 4.37508C38.7625 4.37508 38.2083 4.49175 37.6542 4.66675C37.2167 3.64591 36.1958 2.91675 35 2.91675C33.3958 2.91675 32.0833 4.22925 32.0833 5.83342C32.0833 7.02925 32.8125 8.05008 33.8333 8.48758Z" fill="#EC5863"/>
</svg>
