<svg width="72" height="73" viewBox="0 0 72 73" fill="none" xmlns="http://www.w3.org/2000/svg">
<g filter="url(#filter0_d_220_16)">
<mask id="mask0_220_16" style="mask-type:alpha" maskUnits="userSpaceOnUse" x="5" y="2" width="63" height="63">
<path d="M8.75 61.2501L21.3996 25.1768L45.2083 49.6388L8.75 61.2501Z" fill="#555555" stroke="white" stroke-width="5.83333" stroke-linejoin="round"/>
<path d="M42.2917 36.4585L49.5834 29.1668C54.444 24.3062 59.3061 24.3062 64.1667 29.1668M33.5417 27.7085L40.8334 20.4168C44.7227 16.5275 45.2084 13.1252 42.2917 10.2085L33.5417 27.7085Z" stroke="white" stroke-width="5.83333" stroke-linecap="round" stroke-linejoin="round"/>
<path d="M29.1667 10.2083C30.7775 10.2083 32.0833 8.9025 32.0833 7.29167C32.0833 5.68084 30.7775 4.375 29.1667 4.375C27.5558 4.375 26.25 5.68084 26.25 7.29167C26.25 8.9025 27.5558 10.2083 29.1667 10.2083Z" fill="white"/>
<path d="M61.25 8.75008C62.8608 8.75008 64.1666 7.44425 64.1666 5.83341C64.1666 4.22258 62.8608 2.91675 61.25 2.91675C59.6391 2.91675 58.3333 4.22258 58.3333 5.83341C58.3333 7.44425 59.6391 8.75008 61.25 8.75008Z" fill="white"/>
<path d="M61.25 42.2918C62.8608 42.2918 64.1666 40.986 64.1666 39.3752C64.1666 37.7643 62.8608 36.4585 61.25 36.4585C59.6391 36.4585 58.3333 37.7643 58.3333 39.3752C58.3333 40.986 59.6391 42.2918 61.25 42.2918Z" fill="white"/>
<path d="M56.875 55.4168C58.4858 55.4168 59.7916 54.111 59.7916 52.5002C59.7916 50.8893 58.4858 49.5835 56.875 49.5835C55.2641 49.5835 53.9583 50.8893 53.9583 52.5002C53.9583 54.111 55.2641 55.4168 56.875 55.4168Z" fill="white"/>
</mask>
<g mask="url(#mask0_220_16)">
<path d="M0 0H70V70H0V0Z" fill="#EC5863"/>
</g>
</g>
<defs>
<filter id="filter0_d_220_16" x="-4" y="0" width="78" height="78" filterUnits="userSpaceOnUse" color-interpolation-filters="sRGB">
<feFlood flood-opacity="0" result="BackgroundImageFix"/>
<feColorMatrix in="SourceAlpha" type="matrix" values="0 0 0 0 0 0 0 0 0 0 0 0 0 0 0 0 0 0 127 0" result="hardAlpha"/>
<feOffset dy="4"/>
<feGaussianBlur stdDeviation="2"/>
<feComposite in2="hardAlpha" operator="out"/>
<feColorMatrix type="matrix" values="0 0 0 0 0 0 0 0 0 0 0 0 0 0 0 0 0 0 0.25 0"/>
<feBlend mode="normal" in2="BackgroundImageFix" result="effect1_dropShadow_220_16"/>
<feBlend mode="normal" in="SourceGraphic" in2="effect1_dropShadow_220_16" result="shape"/>
</filter>
</defs>
</svg>
