<svg width="306" height="237" viewBox="0 0 306 237" fill="none" xmlns="http://www.w3.org/2000/svg">
<path d="M206.25 158.687C198.381 160.537 190.061 161.523 181.488 161.523C130.72 161.523 89.5711 126.956 89.5711 84.3089C89.5711 71.301 93.3972 59.0359 100.165 48.2718L100.761 47.3622C99.9305 45.7248 99.5335 43.9207 99.5335 42.0256C99.5335 34.4907 106.807 28.3809 115.776 28.3809C124.746 28.3809 132.019 34.4907 132.019 42.0256C132.019 49.5605 124.746 55.6702 115.776 55.6702C115.361 55.6702 114.964 55.6551 114.567 55.6399L114.549 55.6702C109.37 64.1603 106.446 73.7873 106.446 83.9905C106.446 118.36 139.618 146.225 180.532 146.225C221.446 146.225 254.618 118.36 254.618 83.9905C254.618 54.1542 229.622 29.2299 196.27 23.1656L195.566 23.6962C192.786 25.652 189.213 26.8345 185.315 26.8345C176.489 26.8345 169.342 20.8309 169.342 13.4173C169.342 6.00365 176.507 0 185.315 0C191.92 0 197.605 3.38085 200.023 8.1868L200.276 8.71743C242.021 16.0097 273.388 47.0741 273.388 84.3089C273.388 113.327 254.329 138.599 226.175 151.789L225.561 152.077C225.976 155.003 226.175 157.96 226.175 160.977C226.175 202.836 185.784 236.765 135.954 236.765C102.493 236.765 73.274 221.453 57.6987 198.727L57.5724 198.545C51.8152 201.532 45.0292 203.26 37.7559 203.26C16.9108 203.245 0 189.039 0 171.498C0 153.957 16.9108 139.752 37.792 139.752C58.6733 139.752 75.5841 153.957 75.5841 171.498C75.5841 178.442 72.9311 184.855 68.4372 190.085L68.5274 190.191C81.3413 208.627 105.146 220.998 132.38 220.998C173.186 220.998 206.268 193.208 206.268 158.93L206.25 158.687ZM37.792 153.381C25.8805 153.381 16.2249 161.492 16.2249 171.498C16.2249 181.504 25.8805 189.615 37.792 189.615C49.7036 189.615 59.3591 181.504 59.3591 171.498C59.3591 161.492 49.7036 153.381 37.792 153.381Z" fill="#AFAFAF"/>
<path d="M272.594 162.477H273.594V162.462H292.352C292.739 162.533 293.086 162.458 293.339 162.369C293.622 162.27 293.871 162.123 294.021 162.034C294.58 161.702 294.998 161.112 294.998 160.385V71.0432C294.998 69.7889 293.857 69.0577 292.825 69.0577H170.479C169.448 69.0577 168.306 69.7889 168.306 71.0432V160.492C168.306 161.746 169.448 162.477 170.479 162.477H272.594Z" fill="#FEEAE6" stroke="#FEEAE6" stroke-width="2" stroke-miterlimit="10"/>
<path d="M272.594 161.476H170.479C169.83 161.476 169.306 161.037 169.306 160.491V71.0425C169.306 70.4967 169.83 70.057 170.479 70.057H292.825C293.475 70.057 293.998 70.4967 293.998 71.0425V139.175C293.998 139.493 293.818 139.781 293.511 139.963C293.204 140.145 292.825 140.206 292.464 140.1C290.858 139.66 289.179 139.433 287.483 139.433C278.567 139.433 271.294 145.527 271.294 153.017C271.294 155.442 272.07 157.823 273.532 159.915C273.676 160.081 273.749 160.279 273.749 160.491C273.749 161.037 273.225 161.476 272.594 161.476ZM171.652 159.521H270.662C269.562 157.489 268.966 155.276 268.966 153.032C268.966 144.466 277.268 137.477 287.483 137.477C288.891 137.477 290.298 137.613 291.67 137.871V72.0431H171.652V159.521Z" fill="#E81A3F"/>
<path d="M292.825 90.7063H170.479C169.83 90.7063 169.306 90.2666 169.306 89.7209V71.058C169.306 70.5122 169.83 70.0725 170.479 70.0725H292.825C293.475 70.0725 293.998 70.5122 293.998 71.058V89.7209C293.998 90.2666 293.475 90.7063 292.825 90.7063ZM171.652 88.7506H291.67V72.0431H171.652L171.652 88.7506Z" fill="#E81A3F"/>
<path d="M194.05 110.506H182.481C181.831 110.506 181.308 110.067 181.308 109.521V99.06C181.308 98.5142 181.831 98.0746 182.481 98.0746H194.05C194.699 98.0746 195.223 98.5142 195.223 99.06V109.521C195.223 110.067 194.699 110.506 194.05 110.506ZM183.654 108.535H192.895V100.045H183.654V108.535Z" fill="#E81A3F"/>
<path d="M222.98 110.506H211.412C210.762 110.506 210.239 110.067 210.239 109.521V99.06C210.239 98.5142 210.762 98.0746 211.412 98.0746H222.98C223.63 98.0746 224.153 98.5142 224.153 99.06V109.521C224.135 110.067 223.612 110.506 222.98 110.506ZM212.567 108.535H221.789V100.045H212.567V108.535Z" fill="#E81A3F"/>
<path d="M251.893 110.506H240.324C239.674 110.506 239.151 110.067 239.151 109.521V99.06C239.151 98.5142 239.674 98.0746 240.324 98.0746H251.893C252.542 98.0746 253.066 98.5142 253.066 99.06V109.521C253.066 110.067 252.542 110.506 251.893 110.506ZM241.497 108.535H250.72V100.045H241.497V108.535Z" fill="#E81A3F"/>
<path d="M280.823 110.506H269.255C268.605 110.506 268.082 110.067 268.082 109.521V99.06C268.082 98.5142 268.605 98.0746 269.255 98.0746H280.823C281.473 98.0746 281.996 98.5142 281.996 99.06V109.521C281.978 110.067 281.455 110.506 280.823 110.506ZM270.41 108.535H279.65V100.045H270.41V108.535Z" fill="#E81A3F"/>
<path d="M194.05 131.049H182.481C181.831 131.049 181.308 130.609 181.308 130.063V119.603C181.308 119.057 181.831 118.617 182.481 118.617H194.05C194.699 118.617 195.223 119.057 195.223 119.603V130.063C195.223 130.609 194.699 131.049 194.05 131.049ZM183.654 129.078H192.895V120.588H183.654V129.078Z" fill="#E81A3F"/>
<path d="M222.98 131.049H211.412C210.762 131.049 210.239 130.609 210.239 130.063V119.603C210.239 119.057 210.762 118.617 211.412 118.617H222.98C223.63 118.617 224.153 119.057 224.153 119.603V130.063C224.135 130.609 223.612 131.049 222.98 131.049ZM212.567 129.078H221.789V120.588H212.567V129.078Z" fill="#E81A3F"/>
<path d="M251.893 131.049H240.324C239.674 131.049 239.151 130.609 239.151 130.063V119.603C239.151 119.057 239.674 118.617 240.324 118.617H251.893C252.542 118.617 253.066 119.057 253.066 119.603V130.063C253.066 130.609 252.542 131.049 251.893 131.049ZM241.497 129.078H250.72V120.588H241.497V129.078Z" fill="#E81A3F"/>
<path d="M280.823 131.049H269.255C268.605 131.049 268.082 130.609 268.082 130.063V119.603C268.082 119.057 268.605 118.617 269.255 118.617H280.823C281.473 118.617 281.996 119.057 281.996 119.603V130.063C281.978 130.609 281.455 131.049 280.823 131.049ZM270.41 129.078H279.65V120.588H270.41V129.078Z" fill="#E81A3F"/>
<path d="M194.05 151.592H182.481C181.831 151.592 181.308 151.153 181.308 150.607V140.146C181.308 139.6 181.831 139.16 182.481 139.16H194.05C194.699 139.16 195.223 139.6 195.223 140.146V150.607C195.223 151.153 194.699 151.592 194.05 151.592ZM183.654 149.621H192.895V141.131H183.654V149.621Z" fill="#E81A3F"/>
<path d="M222.98 151.592H211.412C210.762 151.592 210.239 151.153 210.239 150.607V140.146C210.239 139.6 210.762 139.16 211.412 139.16H222.98C223.63 139.16 224.153 139.6 224.153 140.146V150.607C224.135 151.153 223.612 151.592 222.98 151.592ZM212.567 149.621H221.789V141.131H212.567V149.621Z" fill="#E81A3F"/>
<path d="M251.893 151.592H240.324C239.674 151.592 239.151 151.153 239.151 150.607V140.146C239.151 139.6 239.674 139.16 240.324 139.16H251.893C252.542 139.16 253.066 139.6 253.066 140.146V150.607C253.066 151.153 252.542 151.592 251.893 151.592ZM241.497 149.621H250.72V141.131H241.497V149.621Z" fill="#E81A3F"/>
<path d="M188.708 82.1254C188.058 82.1254 187.534 81.6858 187.534 81.14V63.5838C187.534 63.038 188.058 62.5984 188.708 62.5984C189.357 62.5984 189.881 63.038 189.881 63.5838V81.14C189.881 81.6858 189.357 82.1254 188.708 82.1254Z" fill="#E81A3F"/>
<path d="M274.579 82.1254C273.929 82.1254 273.406 81.6858 273.406 81.14V63.5838C273.406 63.038 273.929 62.5984 274.579 62.5984C275.229 62.5984 275.752 63.038 275.752 63.5838V81.14C275.752 81.6858 275.229 82.1254 274.579 82.1254Z" fill="#E81A3F"/>
<path d="M287.483 168.572C277.268 168.572 268.966 161.598 268.966 153.017C268.966 144.451 277.268 137.462 287.483 137.462C297.698 137.462 306 144.436 306 153.017C306 161.598 297.698 168.572 287.483 168.572ZM287.483 139.448C278.567 139.448 271.294 145.543 271.294 153.032C271.294 160.522 278.549 166.616 287.483 166.616C296.417 166.616 303.672 160.522 303.672 153.032C303.654 145.543 296.399 139.448 287.483 139.448Z" fill="#E81A3F"/>
<path d="M287.483 162.887C286.833 162.887 286.31 162.447 286.31 161.902V144.163C286.31 143.618 286.833 143.178 287.483 143.178C288.133 143.178 288.656 143.618 288.656 144.163V161.902C288.638 162.447 288.133 162.887 287.483 162.887Z" fill="#E81A3F"/>
<path d="M298.041 154.018H276.907C276.257 154.018 275.734 153.578 275.734 153.033C275.734 152.487 276.257 152.047 276.907 152.047H298.041C298.691 152.047 299.214 152.487 299.214 153.033C299.214 153.578 298.691 154.018 298.041 154.018Z" fill="#E81A3F"/>
</svg>
