<svg width="70" height="70" viewBox="0 0 70 70" fill="none" xmlns="http://www.w3.org/2000/svg">
<path d="M65.625 7.47036L62.5297 4.37505L37.8284 29.0785C37.6195 29.2803 37.4529 29.5217 37.3382 29.7885C37.2236 30.0554 37.1632 30.3425 37.1607 30.6329C37.1582 30.9234 37.2135 31.2114 37.3235 31.4803C37.4335 31.7491 37.5959 31.9933 37.8013 32.1987C38.0067 32.4041 38.251 32.5665 38.5198 32.6765C38.7886 32.7865 39.0767 32.8419 39.3671 32.8394C39.6576 32.8368 39.9446 32.7765 40.2115 32.6618C40.4784 32.5472 40.7198 32.3805 40.9216 32.1716L48.4794 24.6138C49.5481 26.211 50.1739 28.0633 50.2928 29.9814C50.4118 31.8995 50.0197 33.8149 49.1565 35.5319C48.2933 37.249 46.9899 38.7062 45.3795 39.7549C43.769 40.8037 41.9092 41.4063 39.9897 41.5013C38.922 39.2968 37.3443 37.3784 35.3875 35.9051C33.4307 34.4318 31.1509 33.4459 28.7372 33.0291C28.3522 31.4291 28.3375 29.7623 28.6942 28.1558C29.051 26.5493 29.7697 25.0453 30.7956 23.7586C31.8216 22.4719 33.1277 21.4364 34.6145 20.7309C36.1013 20.0254 37.7294 19.6685 39.375 19.6876V15.3126C37.1605 15.298 34.9695 15.7671 32.955 16.6871C30.9406 17.6071 29.1513 18.9558 27.712 20.6389C26.2728 22.3221 25.2184 24.2991 24.6224 26.432C24.0265 28.5649 23.9033 30.8021 24.2616 32.9876C22.0359 33.2888 19.905 34.0808 18.0228 35.3063C17.3105 32.112 17.3262 28.7983 18.0688 25.6108C18.8114 22.4234 20.2618 19.4439 22.3126 16.8933C24.3633 14.3427 26.9619 12.2864 29.9155 10.8767C32.8692 9.46704 36.1022 8.7402 39.375 8.75005V4.37505C35.2443 4.36678 31.1701 5.33543 27.4851 7.20193C23.8001 9.06842 20.6087 11.7799 18.1714 15.1149C15.734 18.45 14.1199 22.3141 13.4607 26.392C12.8016 30.4698 13.116 34.6457 14.3784 38.5788C12.957 40.307 11.9358 42.3285 11.3881 44.4982C9.00483 45.4134 7.01724 47.1343 5.77039 49.3621C4.52353 51.5899 4.09614 54.1839 4.56238 56.694C5.02863 59.2041 6.35909 61.4716 8.32281 63.103C10.2865 64.7345 12.7595 65.6268 15.3125 65.6251H37.1875C39.9601 65.6171 42.6259 64.5548 44.6441 62.6537C46.6623 60.7525 47.8817 58.1548 48.055 55.3876C53.1811 53.5779 57.6217 50.2265 60.7674 45.793C63.9132 41.3595 65.61 36.0612 65.625 30.6251C65.6483 24.4153 63.4449 18.4028 59.4147 13.6785L65.625 7.47036ZM37.1875 61.2501H15.3125C13.705 61.2547 12.1519 60.6679 10.949 59.6015C9.74612 58.535 8.97745 57.0635 8.78937 55.467C8.60129 53.8705 9.00694 52.2606 9.92907 50.9438C10.8512 49.627 12.2254 48.6954 13.79 48.3263L15.2294 47.9829L15.4459 46.5172C15.8269 43.9239 17.1279 41.5541 19.1115 39.8406C21.0951 38.1271 23.6288 37.1843 26.25 37.1843C28.8712 37.1843 31.4049 38.1271 33.3885 39.8406C35.3721 41.5541 36.6731 43.9239 37.0541 46.5172L37.2706 47.9829L38.71 48.3241C40.2767 48.6913 41.6535 49.6224 42.5776 50.9398C43.5016 52.2572 43.9083 53.8687 43.7201 55.4669C43.5319 57.065 42.7618 58.5379 41.557 59.6046C40.3521 60.6712 38.7967 61.257 37.1875 61.2501ZM61.25 30.6251C61.2379 35.0035 59.9167 39.2782 57.4562 42.8999C54.9957 46.5216 51.5084 49.3247 47.4425 50.9491C46.6177 48.6861 45.0631 46.762 43.0238 45.4804C45.48 44.8802 47.7491 43.6805 49.628 41.9885C51.507 40.2966 52.9372 38.1652 53.7907 35.7852C54.6441 33.4051 54.8942 30.8506 54.5186 28.3502C54.1429 25.8497 53.1533 23.4815 51.6381 21.4572L56.2997 16.7935C59.5131 20.6852 61.2643 25.5782 61.25 30.6251Z" fill="#EC5863"/>
</svg>
